<svg xmlns="http://www.w3.org/2000/svg" xmlns:xlink="http://www.w3.org/1999/xlink" width="64" zoomAndPan="magnify" viewBox="0 0 48 48" height="64" preserveAspectRatio="xMidYMid meet" version="1.0"><defs><clipPath id="57c8f2afb8"><path d="M 0.71875 13.503906 L 8.148438 13.503906 L 8.148438 38.320312 L 0.71875 38.320312 Z M 0.71875 13.503906 " clip-rule="nonzero"/></clipPath><clipPath id="ab0aed6aa8"><path d="M 0.71875 0.503906 L 8.148438 0.503906 L 8.148438 25.320312 L 0.71875 25.320312 Z M 0.71875 0.503906 " clip-rule="nonzero"/></clipPath><clipPath id="52e459f71a"><rect x="0" width="9" y="0" height="26"/></clipPath><clipPath id="13fb8c99b3"><path d="M 10.496094 6.914062 L 17.925781 6.914062 L 17.925781 38.316406 L 10.496094 38.316406 Z M 10.496094 6.914062 " clip-rule="nonzero"/></clipPath><clipPath id="97e7aa0f09"><path d="M 0.496094 0.914062 L 7.925781 0.914062 L 7.925781 32.316406 L 0.496094 32.316406 Z M 0.496094 0.914062 " clip-rule="nonzero"/></clipPath><clipPath id="533066d5da"><rect x="0" width="8" y="0" height="33"/></clipPath><clipPath id="6f8323a519"><path d="M 20.292969 0.628906 L 29.28125 0.628906 L 29.28125 38.320312 L 20.292969 38.320312 Z M 20.292969 0.628906 " clip-rule="nonzero"/></clipPath><clipPath id="3da9431bbf"><path d="M 0.292969 0.628906 L 9.28125 0.628906 L 9.28125 38.320312 L 0.292969 38.320312 Z M 0.292969 0.628906 " clip-rule="nonzero"/></clipPath><clipPath id="95ae613ce7"><rect x="0" width="10" y="0" height="39"/></clipPath><clipPath id="61f13abcb0"><rect x="0" width="30" y="0" height="39"/></clipPath></defs><g transform="matrix(1, 0, 0, 1, 9, 4)"><g clip-path="url(#61f13abcb0)"><g clip-path="url(#57c8f2afb8)"><g transform="matrix(1, 0, 0, 1, -0.000000000000001776, 13)"><g clip-path="url(#52e459f71a)"><g clip-path="url(#ab0aed6aa8)"><path fill="#f37211" d="M 0.71875 0.503906 L 8.148438 0.503906 L 8.148438 25.3125 L 0.71875 25.3125 Z M 0.71875 0.503906 " fill-opacity="1" fill-rule="nonzero"/></g></g></g></g><g clip-path="url(#13fb8c99b3)"><g transform="matrix(1, 0, 0, 1, 10, 6)"><g clip-path="url(#533066d5da)"><g clip-path="url(#97e7aa0f09)"><path fill="#f37211" d="M 0.496094 0.914062 L 7.925781 0.914062 L 7.925781 32.3125 L 0.496094 32.3125 Z M 0.496094 0.914062 " fill-opacity="1" fill-rule="nonzero"/></g></g></g></g><g clip-path="url(#6f8323a519)"><g transform="matrix(1, 0, 0, 1, 20, 0.000000000000003553)"><g clip-path="url(#95ae613ce7)"><g clip-path="url(#3da9431bbf)"><path fill="#f37211" d="M 0.292969 0.628906 L 9.28125 0.628906 L 9.28125 38.3125 L 0.292969 38.3125 Z M 0.292969 0.628906 " fill-opacity="1" fill-rule="nonzero"/></g></g></g></g></g></g></svg>