<svg xmlns="http://www.w3.org/2000/svg" xmlns:xlink="http://www.w3.org/1999/xlink" width="264" zoomAndPan="magnify" viewBox="0 0 198 48" height="64" preserveAspectRatio="xMidYMid meet" version="1.0"><defs><g/><clipPath id="fd7d5c7585"><path d="M 75 9 L 87.714844 9 L 87.714844 23 L 75 23 Z M 75 9 " clip-rule="nonzero"/></clipPath><clipPath id="8d4453055b"><rect x="0" width="88" y="0" height="30"/></clipPath><clipPath id="4882f4d83a"><rect x="0" width="89" y="0" height="9"/></clipPath><clipPath id="6094204990"><path d="M 0.296875 11.417969 L 6.628906 11.417969 L 6.628906 32.582031 L 0.296875 32.582031 Z M 0.296875 11.417969 " clip-rule="nonzero"/></clipPath><clipPath id="51e5272341"><path d="M 0.296875 0.417969 L 6.628906 0.417969 L 6.628906 21.582031 L 0.296875 21.582031 Z M 0.296875 0.417969 " clip-rule="nonzero"/></clipPath><clipPath id="660e3a861b"><rect x="0" width="7" y="0" height="22"/></clipPath><clipPath id="f2d852dd3d"><path d="M 8.632812 5.796875 L 14.96875 5.796875 L 14.96875 32.582031 L 8.632812 32.582031 Z M 8.632812 5.796875 " clip-rule="nonzero"/></clipPath><clipPath id="7240391aff"><path d="M 0.632812 0.796875 L 6.96875 0.796875 L 6.96875 27.582031 L 0.632812 27.582031 Z M 0.632812 0.796875 " clip-rule="nonzero"/></clipPath><clipPath id="d0d4a54420"><rect x="0" width="7" y="0" height="28"/></clipPath><clipPath id="e8e3c170c0"><path d="M 16.988281 0.441406 L 24.652344 0.441406 L 24.652344 32.582031 L 16.988281 32.582031 Z M 16.988281 0.441406 " clip-rule="nonzero"/></clipPath><clipPath id="b4b23dbf2f"><path d="M 0.988281 0.441406 L 8.652344 0.441406 L 8.652344 32.582031 L 0.988281 32.582031 Z M 0.988281 0.441406 " clip-rule="nonzero"/></clipPath><clipPath id="3c4d0cb379"><rect x="0" width="9" y="0" height="33"/></clipPath><clipPath id="6c7182355f"><rect x="0" width="25" y="0" height="33"/></clipPath></defs><g transform="matrix(1, 0, 0, 1, 73, 7)"><g clip-path="url(#8d4453055b)"><g fill="#f3f6f9" fill-opacity="1"><g transform="translate(1.147412, 22.715059)"><g><path d="M 10.015625 0.234375 C 8.316406 0.234375 6.785156 -0.128906 5.421875 -0.859375 C 4.054688 -1.597656 2.984375 -2.617188 2.203125 -3.921875 C 1.429688 -5.234375 1.046875 -6.703125 1.046875 -8.328125 C 1.046875 -9.941406 1.429688 -11.398438 2.203125 -12.703125 C 2.984375 -14.015625 4.054688 -15.039062 5.421875 -15.78125 C 6.785156 -16.519531 8.316406 -16.890625 10.015625 -16.890625 C 11.710938 -16.890625 13.238281 -16.519531 14.59375 -15.78125 C 15.957031 -15.039062 17.03125 -14.019531 17.8125 -12.71875 C 18.59375 -11.414062 18.984375 -9.953125 18.984375 -8.328125 C 18.984375 -6.691406 18.59375 -5.222656 17.8125 -3.921875 C 17.03125 -2.617188 15.957031 -1.597656 14.59375 -0.859375 C 13.238281 -0.128906 11.710938 0.234375 10.015625 0.234375 Z M 10.015625 -2.46875 C 11.117188 -2.46875 12.113281 -2.71875 13 -3.21875 C 13.894531 -3.71875 14.59375 -4.414062 15.09375 -5.3125 C 15.601562 -6.207031 15.859375 -7.210938 15.859375 -8.328125 C 15.859375 -9.429688 15.601562 -10.429688 15.09375 -11.328125 C 14.59375 -12.222656 13.894531 -12.921875 13 -13.421875 C 12.113281 -13.921875 11.117188 -14.171875 10.015625 -14.171875 C 8.898438 -14.171875 7.898438 -13.921875 7.015625 -13.421875 C 6.128906 -12.921875 5.429688 -12.222656 4.921875 -11.328125 C 4.410156 -10.429688 4.15625 -9.429688 4.15625 -8.328125 C 4.15625 -7.210938 4.410156 -6.207031 4.921875 -5.3125 C 5.429688 -4.414062 6.128906 -3.71875 7.015625 -3.21875 C 7.898438 -2.71875 8.898438 -2.46875 10.015625 -2.46875 Z M 10.015625 -2.46875 "/></g></g></g><g fill="#f3f6f9" fill-opacity="1"><g transform="translate(21.167057, 22.715059)"><g><path d="M 8.984375 -12.84375 C 10.222656 -12.84375 11.328125 -12.570312 12.296875 -12.03125 C 13.273438 -11.488281 14.039062 -10.726562 14.59375 -9.75 C 15.15625 -8.769531 15.4375 -7.632812 15.4375 -6.34375 C 15.4375 -5.0625 15.15625 -3.925781 14.59375 -2.9375 C 14.039062 -1.945312 13.273438 -1.179688 12.296875 -0.640625 C 11.328125 -0.0976562 10.222656 0.171875 8.984375 0.171875 C 8.117188 0.171875 7.320312 0.0195312 6.59375 -0.28125 C 5.875 -0.582031 5.269531 -1.035156 4.78125 -1.640625 L 4.78125 0 L 1.953125 0 L 1.953125 -17.640625 L 4.921875 -17.640625 L 4.921875 -11.15625 C 5.429688 -11.707031 6.03125 -12.125 6.71875 -12.40625 C 7.40625 -12.695312 8.160156 -12.84375 8.984375 -12.84375 Z M 8.65625 -2.375 C 9.75 -2.375 10.644531 -2.738281 11.34375 -3.46875 C 12.050781 -4.195312 12.40625 -5.15625 12.40625 -6.34375 C 12.40625 -7.539062 12.050781 -8.503906 11.34375 -9.234375 C 10.644531 -9.960938 9.75 -10.328125 8.65625 -10.328125 C 7.945312 -10.328125 7.304688 -10.160156 6.734375 -9.828125 C 6.160156 -9.503906 5.707031 -9.039062 5.375 -8.4375 C 5.039062 -7.832031 4.875 -7.132812 4.875 -6.34375 C 4.875 -5.550781 5.039062 -4.851562 5.375 -4.25 C 5.707031 -3.65625 6.160156 -3.191406 6.734375 -2.859375 C 7.304688 -2.535156 7.945312 -2.375 8.65625 -2.375 Z M 8.65625 -2.375 "/></g></g></g><g fill="#f3f6f9" fill-opacity="1"><g transform="translate(37.477602, 22.715059)"><g><path d="M 4.78125 -10.84375 C 5.632812 -12.175781 7.140625 -12.84375 9.296875 -12.84375 L 9.296875 -10.015625 C 9.046875 -10.054688 8.816406 -10.078125 8.609375 -10.078125 C 7.453125 -10.078125 6.546875 -9.738281 5.890625 -9.0625 C 5.242188 -8.394531 4.921875 -7.425781 4.921875 -6.15625 L 4.921875 0 L 1.953125 0 L 1.953125 -12.703125 L 4.78125 -12.703125 Z M 4.78125 -10.84375 "/></g></g></g><g fill="#f3f6f9" fill-opacity="1"><g transform="translate(47.273435, 22.715059)"><g><path d="M 6.796875 -12.84375 C 8.671875 -12.84375 10.101562 -12.394531 11.09375 -11.5 C 12.082031 -10.601562 12.578125 -9.25 12.578125 -7.4375 L 12.578125 0 L 9.78125 0 L 9.78125 -1.546875 C 9.414062 -0.992188 8.894531 -0.566406 8.21875 -0.265625 C 7.539062 0.0234375 6.726562 0.171875 5.78125 0.171875 C 4.832031 0.171875 4 0.0078125 3.28125 -0.3125 C 2.570312 -0.644531 2.019531 -1.097656 1.625 -1.671875 C 1.238281 -2.253906 1.046875 -2.910156 1.046875 -3.640625 C 1.046875 -4.773438 1.46875 -5.6875 2.3125 -6.375 C 3.164062 -7.070312 4.503906 -7.421875 6.328125 -7.421875 L 9.609375 -7.421875 L 9.609375 -7.609375 C 9.609375 -8.492188 9.34375 -9.175781 8.8125 -9.65625 C 8.28125 -10.132812 7.488281 -10.375 6.4375 -10.375 C 5.726562 -10.375 5.03125 -10.257812 4.34375 -10.03125 C 3.65625 -9.8125 3.070312 -9.503906 2.59375 -9.109375 L 1.421875 -11.265625 C 2.085938 -11.773438 2.890625 -12.164062 3.828125 -12.4375 C 4.765625 -12.707031 5.753906 -12.84375 6.796875 -12.84375 Z M 6.390625 -2 C 7.140625 -2 7.800781 -2.164062 8.375 -2.5 C 8.957031 -2.84375 9.367188 -3.332031 9.609375 -3.96875 L 9.609375 -5.453125 L 6.546875 -5.453125 C 4.828125 -5.453125 3.96875 -4.882812 3.96875 -3.75 C 3.96875 -3.21875 4.179688 -2.789062 4.609375 -2.46875 C 5.035156 -2.15625 5.628906 -2 6.390625 -2 Z M 6.390625 -2 "/></g></g></g><g fill="#f3f6f9" fill-opacity="1"><g transform="translate(61.705647, 22.715059)"><g><path d="M 1.953125 -17.640625 L 4.921875 -17.640625 L 4.921875 0 L 1.953125 0 Z M 1.953125 -17.640625 "/></g></g></g><g fill="#f3f6f9" fill-opacity="1"><g transform="translate(68.577001, 22.715059)"><g><path d="M 1.953125 -12.703125 L 4.921875 -12.703125 L 4.921875 0 L 1.953125 0 Z M 3.4375 -14.796875 C 2.90625 -14.796875 2.457031 -14.960938 2.09375 -15.296875 C 1.726562 -15.640625 1.546875 -16.066406 1.546875 -16.578125 C 1.546875 -17.085938 1.726562 -17.507812 2.09375 -17.84375 C 2.457031 -18.1875 2.90625 -18.359375 3.4375 -18.359375 C 3.976562 -18.359375 4.429688 -18.195312 4.796875 -17.875 C 5.160156 -17.550781 5.34375 -17.140625 5.34375 -16.640625 C 5.34375 -16.117188 5.164062 -15.679688 4.8125 -15.328125 C 4.457031 -14.972656 4 -14.796875 3.4375 -14.796875 Z M 3.4375 -14.796875 "/></g></g></g><g clip-path="url(#fd7d5c7585)"><g fill="#f3f6f9" fill-opacity="1"><g transform="translate(75.448356, 22.715059)"><g><path d="M 5.875 0.171875 C 4.84375 0.171875 3.832031 0.0351562 2.84375 -0.234375 C 1.863281 -0.503906 1.082031 -0.847656 0.5 -1.265625 L 1.640625 -3.515625 C 2.210938 -3.140625 2.898438 -2.835938 3.703125 -2.609375 C 4.503906 -2.378906 5.289062 -2.265625 6.0625 -2.265625 C 7.84375 -2.265625 8.734375 -2.726562 8.734375 -3.65625 C 8.734375 -4.101562 8.503906 -4.410156 8.046875 -4.578125 C 7.597656 -4.753906 6.875 -4.925781 5.875 -5.09375 C 4.820312 -5.25 3.96875 -5.429688 3.3125 -5.640625 C 2.65625 -5.847656 2.082031 -6.207031 1.59375 -6.71875 C 1.113281 -7.226562 0.875 -7.945312 0.875 -8.875 C 0.875 -10.070312 1.378906 -11.03125 2.390625 -11.75 C 3.398438 -12.476562 4.757812 -12.84375 6.46875 -12.84375 C 7.34375 -12.84375 8.210938 -12.742188 9.078125 -12.546875 C 9.953125 -12.347656 10.664062 -12.082031 11.21875 -11.75 L 10.078125 -9.484375 C 9.003906 -10.117188 7.789062 -10.4375 6.4375 -10.4375 C 5.570312 -10.4375 4.910156 -10.304688 4.453125 -10.046875 C 4.003906 -9.785156 3.78125 -9.441406 3.78125 -9.015625 C 3.78125 -8.535156 4.019531 -8.195312 4.5 -8 C 4.988281 -7.800781 5.738281 -7.613281 6.75 -7.4375 C 7.769531 -7.28125 8.601562 -7.097656 9.25 -6.890625 C 9.894531 -6.691406 10.453125 -6.34375 10.921875 -5.84375 C 11.390625 -5.351562 11.625 -4.65625 11.625 -3.75 C 11.625 -2.5625 11.109375 -1.609375 10.078125 -0.890625 C 9.046875 -0.179688 7.644531 0.171875 5.875 0.171875 Z M 5.875 0.171875 "/></g></g></g></g></g></g><g transform="matrix(1, 0, 0, 1, 73, 31)"><g clip-path="url(#4882f4d83a)"><g fill="#f3f6f9" fill-opacity="1"><g transform="translate(1.147412, 6.587577)"><g><path d="M 2.375 -4.40625 C 2.9375 -4.40625 3.375 -4.269531 3.6875 -4 C 4.007812 -3.738281 4.171875 -3.367188 4.171875 -2.890625 C 4.171875 -2.421875 4.007812 -2.050781 3.6875 -1.78125 C 3.375 -1.519531 2.9375 -1.390625 2.375 -1.390625 L 1.1875 -1.390625 L 1.1875 0 L 0.71875 0 L 0.71875 -4.40625 Z M 2.359375 -1.796875 C 2.796875 -1.796875 3.128906 -1.890625 3.359375 -2.078125 C 3.585938 -2.273438 3.703125 -2.546875 3.703125 -2.890625 C 3.703125 -3.253906 3.585938 -3.53125 3.359375 -3.71875 C 3.128906 -3.90625 2.796875 -4 2.359375 -4 L 1.1875 -4 L 1.1875 -1.796875 Z M 2.359375 -1.796875 "/></g></g></g><g fill="#f3f6f9" fill-opacity="1"><g transform="translate(5.666857, 6.587577)"><g><path d="M 0.625 -4.671875 L 1.078125 -4.671875 L 1.078125 0 L 0.625 0 Z M 0.625 -4.671875 "/></g></g></g><g fill="#f3f6f9" fill-opacity="1"><g transform="translate(7.360077, 6.587577)"><g><path d="M 1.78125 -3.34375 C 2.21875 -3.34375 2.550781 -3.234375 2.78125 -3.015625 C 3.007812 -2.796875 3.125 -2.472656 3.125 -2.046875 L 3.125 0 L 2.6875 0 L 2.6875 -0.515625 C 2.59375 -0.347656 2.445312 -0.210938 2.25 -0.109375 C 2.050781 -0.015625 1.820312 0.03125 1.5625 0.03125 C 1.1875 0.03125 0.890625 -0.0546875 0.671875 -0.234375 C 0.453125 -0.410156 0.34375 -0.644531 0.34375 -0.9375 C 0.34375 -1.21875 0.441406 -1.441406 0.640625 -1.609375 C 0.847656 -1.785156 1.175781 -1.875 1.625 -1.875 L 2.671875 -1.875 L 2.671875 -2.078125 C 2.671875 -2.359375 2.59375 -2.570312 2.4375 -2.71875 C 2.28125 -2.875 2.046875 -2.953125 1.734375 -2.953125 C 1.523438 -2.953125 1.320312 -2.914062 1.125 -2.84375 C 0.9375 -2.769531 0.773438 -2.675781 0.640625 -2.5625 L 0.4375 -2.890625 C 0.601562 -3.035156 0.800781 -3.144531 1.03125 -3.21875 C 1.269531 -3.300781 1.519531 -3.34375 1.78125 -3.34375 Z M 1.625 -0.328125 C 1.875 -0.328125 2.085938 -0.382812 2.265625 -0.5 C 2.453125 -0.613281 2.585938 -0.78125 2.671875 -1 L 2.671875 -1.53125 L 1.640625 -1.53125 C 1.066406 -1.53125 0.78125 -1.332031 0.78125 -0.9375 C 0.78125 -0.75 0.851562 -0.597656 1 -0.484375 C 1.15625 -0.378906 1.363281 -0.328125 1.625 -0.328125 Z M 1.625 -0.328125 "/></g></g></g><g fill="#f3f6f9" fill-opacity="1"><g transform="translate(11.073827, 6.587577)"><g><path d="M 2.3125 -3.34375 C 2.726562 -3.34375 3.054688 -3.21875 3.296875 -2.96875 C 3.546875 -2.726562 3.671875 -2.378906 3.671875 -1.921875 L 3.671875 0 L 3.21875 0 L 3.21875 -1.875 C 3.21875 -2.21875 3.128906 -2.476562 2.953125 -2.65625 C 2.785156 -2.84375 2.546875 -2.9375 2.234375 -2.9375 C 1.867188 -2.9375 1.582031 -2.828125 1.375 -2.609375 C 1.175781 -2.398438 1.078125 -2.109375 1.078125 -1.734375 L 1.078125 0 L 0.625 0 L 0.625 -3.3125 L 1.046875 -3.3125 L 1.046875 -2.703125 C 1.171875 -2.898438 1.335938 -3.054688 1.546875 -3.171875 C 1.765625 -3.285156 2.019531 -3.34375 2.3125 -3.34375 Z M 2.3125 -3.34375 "/></g></g></g><g fill="#f3f6f9" fill-opacity="1"><g transform="translate(15.347787, 6.587577)"><g><path d="M 3.5 -1.515625 L 0.734375 -1.515625 C 0.765625 -1.171875 0.898438 -0.890625 1.140625 -0.671875 C 1.378906 -0.460938 1.679688 -0.359375 2.046875 -0.359375 C 2.242188 -0.359375 2.425781 -0.394531 2.59375 -0.46875 C 2.769531 -0.539062 2.921875 -0.648438 3.046875 -0.796875 L 3.3125 -0.515625 C 3.15625 -0.335938 2.96875 -0.203125 2.75 -0.109375 C 2.53125 -0.015625 2.289062 0.03125 2.03125 0.03125 C 1.6875 0.03125 1.382812 -0.0390625 1.125 -0.1875 C 0.863281 -0.332031 0.660156 -0.53125 0.515625 -0.78125 C 0.367188 -1.039062 0.296875 -1.332031 0.296875 -1.65625 C 0.296875 -1.976562 0.363281 -2.265625 0.5 -2.515625 C 0.644531 -2.773438 0.835938 -2.976562 1.078125 -3.125 C 1.328125 -3.269531 1.601562 -3.34375 1.90625 -3.34375 C 2.21875 -3.34375 2.492188 -3.269531 2.734375 -3.125 C 2.972656 -2.976562 3.160156 -2.773438 3.296875 -2.515625 C 3.441406 -2.265625 3.515625 -1.976562 3.515625 -1.65625 Z M 1.90625 -2.953125 C 1.582031 -2.953125 1.3125 -2.847656 1.09375 -2.640625 C 0.882812 -2.441406 0.765625 -2.175781 0.734375 -1.84375 L 3.078125 -1.84375 C 3.054688 -2.175781 2.9375 -2.441406 2.71875 -2.640625 C 2.5 -2.847656 2.226562 -2.953125 1.90625 -2.953125 Z M 1.90625 -2.953125 "/></g></g></g><g fill="#f3f6f9" fill-opacity="1"><g transform="translate(19.149658, 6.587577)"><g><path d="M 0.125 1.25 C -0.0078125 1.25 -0.140625 1.226562 -0.265625 1.1875 C -0.390625 1.15625 -0.488281 1.101562 -0.5625 1.03125 L -0.40625 0.703125 C -0.28125 0.816406 -0.109375 0.875 0.109375 0.875 C 0.285156 0.875 0.421875 0.816406 0.515625 0.703125 C 0.609375 0.597656 0.65625 0.445312 0.65625 0.25 L 0.65625 -3.3125 L 1.109375 -3.3125 L 1.109375 0.25 C 1.109375 0.5625 1.019531 0.804688 0.84375 0.984375 C 0.675781 1.160156 0.4375 1.25 0.125 1.25 Z M 0.875 -4.03125 C 0.78125 -4.03125 0.703125 -4.0625 0.640625 -4.125 C 0.578125 -4.1875 0.546875 -4.265625 0.546875 -4.359375 C 0.546875 -4.441406 0.578125 -4.515625 0.640625 -4.578125 C 0.703125 -4.640625 0.78125 -4.671875 0.875 -4.671875 C 0.96875 -4.671875 1.046875 -4.640625 1.109375 -4.578125 C 1.171875 -4.515625 1.203125 -4.441406 1.203125 -4.359375 C 1.203125 -4.265625 1.171875 -4.1875 1.109375 -4.125 C 1.046875 -4.0625 0.96875 -4.03125 0.875 -4.03125 Z M 0.875 -4.03125 "/></g></g></g><g fill="#f3f6f9" fill-opacity="1"><g transform="translate(20.87435, 6.587577)"><g><path d="M 3.5 -1.515625 L 0.734375 -1.515625 C 0.765625 -1.171875 0.898438 -0.890625 1.140625 -0.671875 C 1.378906 -0.460938 1.679688 -0.359375 2.046875 -0.359375 C 2.242188 -0.359375 2.425781 -0.394531 2.59375 -0.46875 C 2.769531 -0.539062 2.921875 -0.648438 3.046875 -0.796875 L 3.3125 -0.515625 C 3.15625 -0.335938 2.96875 -0.203125 2.75 -0.109375 C 2.53125 -0.015625 2.289062 0.03125 2.03125 0.03125 C 1.6875 0.03125 1.382812 -0.0390625 1.125 -0.1875 C 0.863281 -0.332031 0.660156 -0.53125 0.515625 -0.78125 C 0.367188 -1.039062 0.296875 -1.332031 0.296875 -1.65625 C 0.296875 -1.976562 0.363281 -2.265625 0.5 -2.515625 C 0.644531 -2.773438 0.835938 -2.976562 1.078125 -3.125 C 1.328125 -3.269531 1.601562 -3.34375 1.90625 -3.34375 C 2.21875 -3.34375 2.492188 -3.269531 2.734375 -3.125 C 2.972656 -2.976562 3.160156 -2.773438 3.296875 -2.515625 C 3.441406 -2.265625 3.515625 -1.976562 3.515625 -1.65625 Z M 1.90625 -2.953125 C 1.582031 -2.953125 1.3125 -2.847656 1.09375 -2.640625 C 0.882812 -2.441406 0.765625 -2.175781 0.734375 -1.84375 L 3.078125 -1.84375 C 3.054688 -2.175781 2.9375 -2.441406 2.71875 -2.640625 C 2.5 -2.847656 2.226562 -2.953125 1.90625 -2.953125 Z M 1.90625 -2.953125 "/></g></g></g><g fill="#f3f6f9" fill-opacity="1"><g transform="translate(24.676221, 6.587577)"><g><path d="M 0.671875 -0.65625 C 0.765625 -0.65625 0.84375 -0.617188 0.90625 -0.546875 C 0.96875 -0.484375 1 -0.40625 1 -0.3125 C 1 -0.257812 0.992188 -0.203125 0.984375 -0.140625 C 0.972656 -0.0859375 0.953125 -0.0234375 0.921875 0.046875 L 0.65625 0.921875 L 0.359375 0.921875 L 0.5625 0 C 0.5 -0.0195312 0.445312 -0.0546875 0.40625 -0.109375 C 0.363281 -0.160156 0.34375 -0.226562 0.34375 -0.3125 C 0.34375 -0.40625 0.375 -0.484375 0.4375 -0.546875 C 0.5 -0.617188 0.578125 -0.65625 0.671875 -0.65625 Z M 0.671875 -0.65625 "/></g></g></g><g fill="#f3f6f9" fill-opacity="1"><g transform="translate(26.010655, 6.587577)"><g/></g></g><g fill="#f3f6f9" fill-opacity="1"><g transform="translate(27.659815, 6.587577)"><g><path d="M 2.625 0.03125 C 2.195312 0.03125 1.804688 -0.0625 1.453125 -0.25 C 1.097656 -0.445312 0.820312 -0.710938 0.625 -1.046875 C 0.425781 -1.390625 0.328125 -1.773438 0.328125 -2.203125 C 0.328125 -2.628906 0.425781 -3.007812 0.625 -3.34375 C 0.820312 -3.6875 1.097656 -3.957031 1.453125 -4.15625 C 1.804688 -4.351562 2.203125 -4.453125 2.640625 -4.453125 C 2.960938 -4.453125 3.257812 -4.394531 3.53125 -4.28125 C 3.8125 -4.175781 4.050781 -4.015625 4.25 -3.796875 L 3.953125 -3.5 C 3.609375 -3.851562 3.175781 -4.03125 2.65625 -4.03125 C 2.300781 -4.03125 1.976562 -3.945312 1.6875 -3.78125 C 1.40625 -3.625 1.179688 -3.40625 1.015625 -3.125 C 0.859375 -2.851562 0.78125 -2.546875 0.78125 -2.203125 C 0.78125 -1.859375 0.859375 -1.546875 1.015625 -1.265625 C 1.179688 -0.992188 1.40625 -0.773438 1.6875 -0.609375 C 1.976562 -0.453125 2.300781 -0.375 2.65625 -0.375 C 3.175781 -0.375 3.609375 -0.550781 3.953125 -0.90625 L 4.25 -0.609375 C 4.050781 -0.398438 3.8125 -0.238281 3.53125 -0.125 C 3.257812 -0.0195312 2.957031 0.03125 2.625 0.03125 Z M 2.625 0.03125 "/></g></g></g><g fill="#f3f6f9" fill-opacity="1"><g transform="translate(32.040786, 6.587577)"><g><path d="M 1.984375 0.03125 C 1.660156 0.03125 1.367188 -0.0390625 1.109375 -0.1875 C 0.859375 -0.332031 0.660156 -0.53125 0.515625 -0.78125 C 0.367188 -1.039062 0.296875 -1.332031 0.296875 -1.65625 C 0.296875 -1.976562 0.367188 -2.265625 0.515625 -2.515625 C 0.660156 -2.773438 0.859375 -2.976562 1.109375 -3.125 C 1.367188 -3.269531 1.660156 -3.34375 1.984375 -3.34375 C 2.296875 -3.34375 2.578125 -3.269531 2.828125 -3.125 C 3.085938 -2.976562 3.289062 -2.773438 3.4375 -2.515625 C 3.582031 -2.265625 3.65625 -1.976562 3.65625 -1.65625 C 3.65625 -1.332031 3.582031 -1.039062 3.4375 -0.78125 C 3.289062 -0.53125 3.085938 -0.332031 2.828125 -0.1875 C 2.578125 -0.0390625 2.296875 0.03125 1.984375 0.03125 Z M 1.984375 -0.359375 C 2.210938 -0.359375 2.421875 -0.410156 2.609375 -0.515625 C 2.796875 -0.628906 2.941406 -0.785156 3.046875 -0.984375 C 3.148438 -1.179688 3.203125 -1.40625 3.203125 -1.65625 C 3.203125 -1.90625 3.148438 -2.128906 3.046875 -2.328125 C 2.941406 -2.523438 2.796875 -2.675781 2.609375 -2.78125 C 2.421875 -2.894531 2.210938 -2.953125 1.984375 -2.953125 C 1.742188 -2.953125 1.53125 -2.894531 1.34375 -2.78125 C 1.15625 -2.675781 1.007812 -2.523438 0.90625 -2.328125 C 0.800781 -2.128906 0.75 -1.90625 0.75 -1.65625 C 0.75 -1.40625 0.800781 -1.179688 0.90625 -0.984375 C 1.007812 -0.785156 1.15625 -0.628906 1.34375 -0.515625 C 1.53125 -0.410156 1.742188 -0.359375 1.984375 -0.359375 Z M 1.984375 -0.359375 "/></g></g></g><g fill="#f3f6f9" fill-opacity="1"><g transform="translate(35.98743, 6.587577)"><g><path d="M 2.3125 -3.34375 C 2.726562 -3.34375 3.054688 -3.21875 3.296875 -2.96875 C 3.546875 -2.726562 3.671875 -2.378906 3.671875 -1.921875 L 3.671875 0 L 3.21875 0 L 3.21875 -1.875 C 3.21875 -2.21875 3.128906 -2.476562 2.953125 -2.65625 C 2.785156 -2.84375 2.546875 -2.9375 2.234375 -2.9375 C 1.867188 -2.9375 1.582031 -2.828125 1.375 -2.609375 C 1.175781 -2.398438 1.078125 -2.109375 1.078125 -1.734375 L 1.078125 0 L 0.625 0 L 0.625 -3.3125 L 1.046875 -3.3125 L 1.046875 -2.703125 C 1.171875 -2.898438 1.335938 -3.054688 1.546875 -3.171875 C 1.765625 -3.285156 2.019531 -3.34375 2.3125 -3.34375 Z M 2.3125 -3.34375 "/></g></g></g><g fill="#f3f6f9" fill-opacity="1"><g transform="translate(40.2488, 6.587577)"><g><path d="M 1.515625 0.03125 C 1.242188 0.03125 0.984375 -0.00390625 0.734375 -0.078125 C 0.492188 -0.160156 0.300781 -0.257812 0.15625 -0.375 L 0.359375 -0.734375 C 0.503906 -0.617188 0.679688 -0.523438 0.890625 -0.453125 C 1.097656 -0.390625 1.316406 -0.359375 1.546875 -0.359375 C 1.847656 -0.359375 2.070312 -0.40625 2.21875 -0.5 C 2.363281 -0.59375 2.4375 -0.726562 2.4375 -0.90625 C 2.4375 -1.019531 2.394531 -1.113281 2.3125 -1.1875 C 2.226562 -1.257812 2.125 -1.3125 2 -1.34375 C 1.882812 -1.375 1.726562 -1.410156 1.53125 -1.453125 C 1.257812 -1.503906 1.039062 -1.554688 0.875 -1.609375 C 0.707031 -1.660156 0.566406 -1.75 0.453125 -1.875 C 0.335938 -2 0.28125 -2.171875 0.28125 -2.390625 C 0.28125 -2.671875 0.394531 -2.898438 0.625 -3.078125 C 0.851562 -3.253906 1.175781 -3.34375 1.59375 -3.34375 C 1.8125 -3.34375 2.023438 -3.3125 2.234375 -3.25 C 2.453125 -3.195312 2.628906 -3.125 2.765625 -3.03125 L 2.5625 -2.671875 C 2.289062 -2.859375 1.96875 -2.953125 1.59375 -2.953125 C 1.3125 -2.953125 1.097656 -2.898438 0.953125 -2.796875 C 0.804688 -2.703125 0.734375 -2.570312 0.734375 -2.40625 C 0.734375 -2.28125 0.769531 -2.175781 0.84375 -2.09375 C 0.925781 -2.019531 1.03125 -1.960938 1.15625 -1.921875 C 1.28125 -1.890625 1.445312 -1.859375 1.65625 -1.828125 C 1.925781 -1.773438 2.140625 -1.722656 2.296875 -1.671875 C 2.453125 -1.617188 2.585938 -1.53125 2.703125 -1.40625 C 2.816406 -1.289062 2.875 -1.125 2.875 -0.90625 C 2.875 -0.625 2.753906 -0.394531 2.515625 -0.21875 C 2.273438 -0.0507812 1.941406 0.03125 1.515625 0.03125 Z M 1.515625 0.03125 "/></g></g></g><g fill="#f3f6f9" fill-opacity="1"><g transform="translate(43.326807, 6.587577)"><g><path d="M 2.375 -0.203125 C 2.28125 -0.128906 2.171875 -0.0703125 2.046875 -0.03125 C 1.929688 0.0078125 1.804688 0.03125 1.671875 0.03125 C 1.359375 0.03125 1.117188 -0.0507812 0.953125 -0.21875 C 0.785156 -0.382812 0.703125 -0.625 0.703125 -0.9375 L 0.703125 -2.9375 L 0.109375 -2.9375 L 0.109375 -3.3125 L 0.703125 -3.3125 L 0.703125 -4.03125 L 1.140625 -4.03125 L 1.140625 -3.3125 L 2.15625 -3.3125 L 2.15625 -2.9375 L 1.140625 -2.9375 L 1.140625 -0.953125 C 1.140625 -0.753906 1.1875 -0.601562 1.28125 -0.5 C 1.382812 -0.40625 1.53125 -0.359375 1.71875 -0.359375 C 1.8125 -0.359375 1.898438 -0.367188 1.984375 -0.390625 C 2.066406 -0.421875 2.140625 -0.460938 2.203125 -0.515625 Z M 2.375 -0.203125 "/></g></g></g><g fill="#f3f6f9" fill-opacity="1"><g transform="translate(45.882374, 6.587577)"><g><path d="M 1.046875 -2.65625 C 1.148438 -2.882812 1.304688 -3.054688 1.515625 -3.171875 C 1.722656 -3.285156 1.984375 -3.34375 2.296875 -3.34375 L 2.296875 -2.90625 L 2.1875 -2.90625 C 1.832031 -2.90625 1.554688 -2.796875 1.359375 -2.578125 C 1.171875 -2.367188 1.078125 -2.070312 1.078125 -1.6875 L 1.078125 0 L 0.625 0 L 0.625 -3.3125 L 1.046875 -3.3125 Z M 1.046875 -2.65625 "/></g></g></g><g fill="#f3f6f9" fill-opacity="1"><g transform="translate(48.406461, 6.587577)"><g><path d="M 3.609375 -3.3125 L 3.609375 0 L 3.1875 0 L 3.1875 -0.609375 C 3.0625 -0.398438 2.894531 -0.238281 2.6875 -0.125 C 2.488281 -0.0195312 2.253906 0.03125 1.984375 0.03125 C 1.554688 0.03125 1.21875 -0.0859375 0.96875 -0.328125 C 0.71875 -0.566406 0.59375 -0.921875 0.59375 -1.390625 L 0.59375 -3.3125 L 1.03125 -3.3125 L 1.03125 -1.4375 C 1.03125 -1.082031 1.117188 -0.816406 1.296875 -0.640625 C 1.472656 -0.460938 1.71875 -0.375 2.03125 -0.375 C 2.382812 -0.375 2.660156 -0.476562 2.859375 -0.6875 C 3.054688 -0.894531 3.15625 -1.191406 3.15625 -1.578125 L 3.15625 -3.3125 Z M 3.609375 -3.3125 "/></g></g></g><g fill="#f3f6f9" fill-opacity="1"><g transform="translate(52.642651, 6.587577)"><g><path d="M 1.78125 -3.34375 C 2.21875 -3.34375 2.550781 -3.234375 2.78125 -3.015625 C 3.007812 -2.796875 3.125 -2.472656 3.125 -2.046875 L 3.125 0 L 2.6875 0 L 2.6875 -0.515625 C 2.59375 -0.347656 2.445312 -0.210938 2.25 -0.109375 C 2.050781 -0.015625 1.820312 0.03125 1.5625 0.03125 C 1.1875 0.03125 0.890625 -0.0546875 0.671875 -0.234375 C 0.453125 -0.410156 0.34375 -0.644531 0.34375 -0.9375 C 0.34375 -1.21875 0.441406 -1.441406 0.640625 -1.609375 C 0.847656 -1.785156 1.175781 -1.875 1.625 -1.875 L 2.671875 -1.875 L 2.671875 -2.078125 C 2.671875 -2.359375 2.59375 -2.570312 2.4375 -2.71875 C 2.28125 -2.875 2.046875 -2.953125 1.734375 -2.953125 C 1.523438 -2.953125 1.320312 -2.914062 1.125 -2.84375 C 0.9375 -2.769531 0.773438 -2.675781 0.640625 -2.5625 L 0.4375 -2.890625 C 0.601562 -3.035156 0.800781 -3.144531 1.03125 -3.21875 C 1.269531 -3.300781 1.519531 -3.34375 1.78125 -3.34375 Z M 1.625 -0.328125 C 1.875 -0.328125 2.085938 -0.382812 2.265625 -0.5 C 2.453125 -0.613281 2.585938 -0.78125 2.671875 -1 L 2.671875 -1.53125 L 1.640625 -1.53125 C 1.066406 -1.53125 0.78125 -1.332031 0.78125 -0.9375 C 0.78125 -0.75 0.851562 -0.597656 1 -0.484375 C 1.15625 -0.378906 1.363281 -0.328125 1.625 -0.328125 Z M 1.625 -0.328125 "/></g></g></g><g fill="#f3f6f9" fill-opacity="1"><g transform="translate(56.3564, 6.587577)"><g><path d="M 0.671875 -0.65625 C 0.765625 -0.65625 0.84375 -0.617188 0.90625 -0.546875 C 0.96875 -0.484375 1 -0.40625 1 -0.3125 C 1 -0.257812 0.992188 -0.203125 0.984375 -0.140625 C 0.972656 -0.0859375 0.953125 -0.0234375 0.921875 0.046875 L 0.65625 0.921875 L 0.359375 0.921875 L 0.5625 0 C 0.5 -0.0195312 0.445312 -0.0546875 0.40625 -0.109375 C 0.363281 -0.160156 0.34375 -0.226562 0.34375 -0.3125 C 0.34375 -0.40625 0.375 -0.484375 0.4375 -0.546875 C 0.5 -0.617188 0.578125 -0.65625 0.671875 -0.65625 Z M 0.671875 -0.65625 "/></g></g></g><g fill="#f3f6f9" fill-opacity="1"><g transform="translate(57.690835, 6.587577)"><g/></g></g><g fill="#f3f6f9" fill-opacity="1"><g transform="translate(59.339995, 6.587577)"><g><path d="M 2.625 0.03125 C 2.195312 0.03125 1.804688 -0.0625 1.453125 -0.25 C 1.097656 -0.445312 0.820312 -0.710938 0.625 -1.046875 C 0.425781 -1.390625 0.328125 -1.773438 0.328125 -2.203125 C 0.328125 -2.628906 0.425781 -3.007812 0.625 -3.34375 C 0.820312 -3.6875 1.097656 -3.957031 1.453125 -4.15625 C 1.804688 -4.351562 2.203125 -4.453125 2.640625 -4.453125 C 2.960938 -4.453125 3.257812 -4.394531 3.53125 -4.28125 C 3.8125 -4.175781 4.050781 -4.015625 4.25 -3.796875 L 3.953125 -3.5 C 3.609375 -3.851562 3.175781 -4.03125 2.65625 -4.03125 C 2.300781 -4.03125 1.976562 -3.945312 1.6875 -3.78125 C 1.40625 -3.625 1.179688 -3.40625 1.015625 -3.125 C 0.859375 -2.851562 0.78125 -2.546875 0.78125 -2.203125 C 0.78125 -1.859375 0.859375 -1.546875 1.015625 -1.265625 C 1.179688 -0.992188 1.40625 -0.773438 1.6875 -0.609375 C 1.976562 -0.453125 2.300781 -0.375 2.65625 -0.375 C 3.175781 -0.375 3.609375 -0.550781 3.953125 -0.90625 L 4.25 -0.609375 C 4.050781 -0.398438 3.8125 -0.238281 3.53125 -0.125 C 3.257812 -0.0195312 2.957031 0.03125 2.625 0.03125 Z M 2.625 0.03125 "/></g></g></g><g fill="#f3f6f9" fill-opacity="1"><g transform="translate(63.720965, 6.587577)"><g><path d="M 1.984375 0.03125 C 1.660156 0.03125 1.367188 -0.0390625 1.109375 -0.1875 C 0.859375 -0.332031 0.660156 -0.53125 0.515625 -0.78125 C 0.367188 -1.039062 0.296875 -1.332031 0.296875 -1.65625 C 0.296875 -1.976562 0.367188 -2.265625 0.515625 -2.515625 C 0.660156 -2.773438 0.859375 -2.976562 1.109375 -3.125 C 1.367188 -3.269531 1.660156 -3.34375 1.984375 -3.34375 C 2.296875 -3.34375 2.578125 -3.269531 2.828125 -3.125 C 3.085938 -2.976562 3.289062 -2.773438 3.4375 -2.515625 C 3.582031 -2.265625 3.65625 -1.976562 3.65625 -1.65625 C 3.65625 -1.332031 3.582031 -1.039062 3.4375 -0.78125 C 3.289062 -0.53125 3.085938 -0.332031 2.828125 -0.1875 C 2.578125 -0.0390625 2.296875 0.03125 1.984375 0.03125 Z M 1.984375 -0.359375 C 2.210938 -0.359375 2.421875 -0.410156 2.609375 -0.515625 C 2.796875 -0.628906 2.941406 -0.785156 3.046875 -0.984375 C 3.148438 -1.179688 3.203125 -1.40625 3.203125 -1.65625 C 3.203125 -1.90625 3.148438 -2.128906 3.046875 -2.328125 C 2.941406 -2.523438 2.796875 -2.675781 2.609375 -2.78125 C 2.421875 -2.894531 2.210938 -2.953125 1.984375 -2.953125 C 1.742188 -2.953125 1.53125 -2.894531 1.34375 -2.78125 C 1.15625 -2.675781 1.007812 -2.523438 0.90625 -2.328125 C 0.800781 -2.128906 0.75 -1.90625 0.75 -1.65625 C 0.75 -1.40625 0.800781 -1.179688 0.90625 -0.984375 C 1.007812 -0.785156 1.15625 -0.628906 1.34375 -0.515625 C 1.53125 -0.410156 1.742188 -0.359375 1.984375 -0.359375 Z M 1.984375 -0.359375 "/></g></g></g><g fill="#f3f6f9" fill-opacity="1"><g transform="translate(67.667609, 6.587577)"><g><path d="M 2.3125 -3.34375 C 2.726562 -3.34375 3.054688 -3.21875 3.296875 -2.96875 C 3.546875 -2.726562 3.671875 -2.378906 3.671875 -1.921875 L 3.671875 0 L 3.21875 0 L 3.21875 -1.875 C 3.21875 -2.21875 3.128906 -2.476562 2.953125 -2.65625 C 2.785156 -2.84375 2.546875 -2.9375 2.234375 -2.9375 C 1.867188 -2.9375 1.582031 -2.828125 1.375 -2.609375 C 1.175781 -2.398438 1.078125 -2.109375 1.078125 -1.734375 L 1.078125 0 L 0.625 0 L 0.625 -3.3125 L 1.046875 -3.3125 L 1.046875 -2.703125 C 1.171875 -2.898438 1.335938 -3.054688 1.546875 -3.171875 C 1.765625 -3.285156 2.019531 -3.34375 2.3125 -3.34375 Z M 2.3125 -3.34375 "/></g></g></g><g fill="#f3f6f9" fill-opacity="1"><g transform="translate(71.928979, 6.587577)"><g><path d="M 2.375 -0.203125 C 2.28125 -0.128906 2.171875 -0.0703125 2.046875 -0.03125 C 1.929688 0.0078125 1.804688 0.03125 1.671875 0.03125 C 1.359375 0.03125 1.117188 -0.0507812 0.953125 -0.21875 C 0.785156 -0.382812 0.703125 -0.625 0.703125 -0.9375 L 0.703125 -2.9375 L 0.109375 -2.9375 L 0.109375 -3.3125 L 0.703125 -3.3125 L 0.703125 -4.03125 L 1.140625 -4.03125 L 1.140625 -3.3125 L 2.15625 -3.3125 L 2.15625 -2.9375 L 1.140625 -2.9375 L 1.140625 -0.953125 C 1.140625 -0.753906 1.1875 -0.601562 1.28125 -0.5 C 1.382812 -0.40625 1.53125 -0.359375 1.71875 -0.359375 C 1.8125 -0.359375 1.898438 -0.367188 1.984375 -0.390625 C 2.066406 -0.421875 2.140625 -0.460938 2.203125 -0.515625 Z M 2.375 -0.203125 "/></g></g></g><g fill="#f3f6f9" fill-opacity="1"><g transform="translate(74.484546, 6.587577)"><g><path d="M 1.046875 -2.65625 C 1.148438 -2.882812 1.304688 -3.054688 1.515625 -3.171875 C 1.722656 -3.285156 1.984375 -3.34375 2.296875 -3.34375 L 2.296875 -2.90625 L 2.1875 -2.90625 C 1.832031 -2.90625 1.554688 -2.796875 1.359375 -2.578125 C 1.171875 -2.367188 1.078125 -2.070312 1.078125 -1.6875 L 1.078125 0 L 0.625 0 L 0.625 -3.3125 L 1.046875 -3.3125 Z M 1.046875 -2.65625 "/></g></g></g><g fill="#f3f6f9" fill-opacity="1"><g transform="translate(76.926803, 6.587577)"><g><path d="M 1.984375 0.03125 C 1.660156 0.03125 1.367188 -0.0390625 1.109375 -0.1875 C 0.859375 -0.332031 0.660156 -0.53125 0.515625 -0.78125 C 0.367188 -1.039062 0.296875 -1.332031 0.296875 -1.65625 C 0.296875 -1.976562 0.367188 -2.265625 0.515625 -2.515625 C 0.660156 -2.773438 0.859375 -2.976562 1.109375 -3.125 C 1.367188 -3.269531 1.660156 -3.34375 1.984375 -3.34375 C 2.296875 -3.34375 2.578125 -3.269531 2.828125 -3.125 C 3.085938 -2.976562 3.289062 -2.773438 3.4375 -2.515625 C 3.582031 -2.265625 3.65625 -1.976562 3.65625 -1.65625 C 3.65625 -1.332031 3.582031 -1.039062 3.4375 -0.78125 C 3.289062 -0.53125 3.085938 -0.332031 2.828125 -0.1875 C 2.578125 -0.0390625 2.296875 0.03125 1.984375 0.03125 Z M 1.984375 -0.359375 C 2.210938 -0.359375 2.421875 -0.410156 2.609375 -0.515625 C 2.796875 -0.628906 2.941406 -0.785156 3.046875 -0.984375 C 3.148438 -1.179688 3.203125 -1.40625 3.203125 -1.65625 C 3.203125 -1.90625 3.148438 -2.128906 3.046875 -2.328125 C 2.941406 -2.523438 2.796875 -2.675781 2.609375 -2.78125 C 2.421875 -2.894531 2.210938 -2.953125 1.984375 -2.953125 C 1.742188 -2.953125 1.53125 -2.894531 1.34375 -2.78125 C 1.15625 -2.675781 1.007812 -2.523438 0.90625 -2.328125 C 0.800781 -2.128906 0.75 -1.90625 0.75 -1.65625 C 0.75 -1.40625 0.800781 -1.179688 0.90625 -0.984375 C 1.007812 -0.785156 1.15625 -0.628906 1.34375 -0.515625 C 1.53125 -0.410156 1.742188 -0.359375 1.984375 -0.359375 Z M 1.984375 -0.359375 "/></g></g></g><g fill="#f3f6f9" fill-opacity="1"><g transform="translate(80.873447, 6.587577)"><g><path d="M 0.625 -4.671875 L 1.078125 -4.671875 L 1.078125 0 L 0.625 0 Z M 0.625 -4.671875 "/></g></g></g><g fill="#f3f6f9" fill-opacity="1"><g transform="translate(82.566668, 6.587577)"><g><path d="M 3.5 -1.515625 L 0.734375 -1.515625 C 0.765625 -1.171875 0.898438 -0.890625 1.140625 -0.671875 C 1.378906 -0.460938 1.679688 -0.359375 2.046875 -0.359375 C 2.242188 -0.359375 2.425781 -0.394531 2.59375 -0.46875 C 2.769531 -0.539062 2.921875 -0.648438 3.046875 -0.796875 L 3.3125 -0.515625 C 3.15625 -0.335938 2.96875 -0.203125 2.75 -0.109375 C 2.53125 -0.015625 2.289062 0.03125 2.03125 0.03125 C 1.6875 0.03125 1.382812 -0.0390625 1.125 -0.1875 C 0.863281 -0.332031 0.660156 -0.53125 0.515625 -0.78125 C 0.367188 -1.039062 0.296875 -1.332031 0.296875 -1.65625 C 0.296875 -1.976562 0.363281 -2.265625 0.5 -2.515625 C 0.644531 -2.773438 0.835938 -2.976562 1.078125 -3.125 C 1.328125 -3.269531 1.601562 -3.34375 1.90625 -3.34375 C 2.21875 -3.34375 2.492188 -3.269531 2.734375 -3.125 C 2.972656 -2.976562 3.160156 -2.773438 3.296875 -2.515625 C 3.441406 -2.265625 3.515625 -1.976562 3.515625 -1.65625 Z M 1.90625 -2.953125 C 1.582031 -2.953125 1.3125 -2.847656 1.09375 -2.640625 C 0.882812 -2.441406 0.765625 -2.175781 0.734375 -1.84375 L 3.078125 -1.84375 C 3.054688 -2.175781 2.9375 -2.441406 2.71875 -2.640625 C 2.5 -2.847656 2.226562 -2.953125 1.90625 -2.953125 Z M 1.90625 -2.953125 "/></g></g></g><g fill="#f3f6f9" fill-opacity="1"><g transform="translate(86.368539, 6.587577)"><g><path d="M 0.671875 0.03125 C 0.578125 0.03125 0.492188 0 0.421875 -0.0625 C 0.359375 -0.132812 0.328125 -0.21875 0.328125 -0.3125 C 0.328125 -0.40625 0.359375 -0.484375 0.421875 -0.546875 C 0.492188 -0.617188 0.578125 -0.65625 0.671875 -0.65625 C 0.765625 -0.65625 0.84375 -0.617188 0.90625 -0.546875 C 0.96875 -0.484375 1 -0.40625 1 -0.3125 C 1 -0.21875 0.96875 -0.132812 0.90625 -0.0625 C 0.84375 0 0.765625 0.03125 0.671875 0.03125 Z M 0.671875 0.03125 "/></g></g></g></g></g><g transform="matrix(1, 0, 0, 1, 37, 7)"><g clip-path="url(#6c7182355f)"><g clip-path="url(#6094204990)"><g transform="matrix(1, 0, 0, 1, -0.000000000000007105, 11)"><g clip-path="url(#660e3a861b)"><g clip-path="url(#51e5272341)"><path fill="#f37211" d="M 0.296875 0.417969 L 6.628906 0.417969 L 6.628906 21.578125 L 0.296875 21.578125 Z M 0.296875 0.417969 " fill-opacity="1" fill-rule="nonzero"/></g></g></g></g><g clip-path="url(#f2d852dd3d)"><g transform="matrix(1, 0, 0, 1, 8, 5)"><g clip-path="url(#d0d4a54420)"><g clip-path="url(#7240391aff)"><path fill="#f37211" d="M 0.632812 0.796875 L 6.96875 0.796875 L 6.96875 27.574219 L 0.632812 27.574219 Z M 0.632812 0.796875 " fill-opacity="1" fill-rule="nonzero"/></g></g></g></g><g clip-path="url(#e8e3c170c0)"><g transform="matrix(1, 0, 0, 1, 16, 0.000000000000003553)"><g clip-path="url(#3c4d0cb379)"><g clip-path="url(#b4b23dbf2f)"><path fill="#f37211" d="M 0.988281 0.441406 L 8.652344 0.441406 L 8.652344 32.574219 L 0.988281 32.574219 Z M 0.988281 0.441406 " fill-opacity="1" fill-rule="nonzero"/></g></g></g></g></g></g></svg>