<svg xmlns="http://www.w3.org/2000/svg" xmlns:xlink="http://www.w3.org/1999/xlink" width="64" zoomAndPan="magnify" viewBox="0 0 48 48" height="64" preserveAspectRatio="xMidYMid meet" version="1.0"><defs><clipPath id="2acb978b74"><path d="M 0.746094 13.550781 L 8.160156 13.550781 L 8.160156 38.320312 L 0.746094 38.320312 Z M 0.746094 13.550781 " clip-rule="nonzero"/></clipPath><clipPath id="eb347a0c66"><path d="M 0.746094 0.550781 L 8.160156 0.550781 L 8.160156 25.320312 L 0.746094 25.320312 Z M 0.746094 0.550781 " clip-rule="nonzero"/></clipPath><clipPath id="c102b7763b"><rect x="0" width="9" y="0" height="26"/></clipPath><clipPath id="38421b9c29"><path d="M 10.503906 6.972656 L 17.921875 6.972656 L 17.921875 38.320312 L 10.503906 38.320312 Z M 10.503906 6.972656 " clip-rule="nonzero"/></clipPath><clipPath id="36f0e05589"><path d="M 0.503906 0.972656 L 7.921875 0.972656 L 7.921875 32.320312 L 0.503906 32.320312 Z M 0.503906 0.972656 " clip-rule="nonzero"/></clipPath><clipPath id="fcd3d1fbf2"><rect x="0" width="8" y="0" height="33"/></clipPath><clipPath id="467b9ef8ca"><path d="M 20.28125 0.703125 L 29.253906 0.703125 L 29.253906 38.320312 L 20.28125 38.320312 Z M 20.28125 0.703125 " clip-rule="nonzero"/></clipPath><clipPath id="ce72b93a75"><path d="M 0.28125 0.703125 L 9.253906 0.703125 L 9.253906 38.320312 L 0.28125 38.320312 Z M 0.28125 0.703125 " clip-rule="nonzero"/></clipPath><clipPath id="2f6ea9326f"><rect x="0" width="10" y="0" height="39"/></clipPath><clipPath id="28d98c9da2"><rect x="0" width="30" y="0" height="39"/></clipPath></defs><g transform="matrix(1, 0, 0, 1, 9, 4)"><g clip-path="url(#28d98c9da2)"><g clip-path="url(#2acb978b74)"><g transform="matrix(1, 0, 0, 1, -0.000000000000001776, 13)"><g clip-path="url(#c102b7763b)"><g clip-path="url(#eb347a0c66)"><path fill="#1a202c" d="M 0.746094 0.550781 L 8.160156 0.550781 L 8.160156 25.3125 L 0.746094 25.3125 Z M 0.746094 0.550781 " fill-opacity="1" fill-rule="nonzero"/></g></g></g></g><g clip-path="url(#38421b9c29)"><g transform="matrix(1, 0, 0, 1, 10, 6)"><g clip-path="url(#fcd3d1fbf2)"><g clip-path="url(#36f0e05589)"><path fill="#1a202c" d="M 0.503906 0.972656 L 7.921875 0.972656 L 7.921875 32.3125 L 0.503906 32.3125 Z M 0.503906 0.972656 " fill-opacity="1" fill-rule="nonzero"/></g></g></g></g><g clip-path="url(#467b9ef8ca)"><g transform="matrix(1, 0, 0, 1, 20, 0.000000000000003553)"><g clip-path="url(#2f6ea9326f)"><g clip-path="url(#ce72b93a75)"><path fill="#1a202c" d="M 0.28125 0.703125 L 9.253906 0.703125 L 9.253906 38.3125 L 0.28125 38.3125 Z M 0.28125 0.703125 " fill-opacity="1" fill-rule="nonzero"/></g></g></g></g></g></g></svg>